# xmcd
# 
# Track frame offsets:
#     182
#     12055
#     24275
#     35370
#     45610
#     56692
#     69932
#     81417
#     91195
#     102842
#     113182
#     126957
#     150032
#     162960
#     174970
#     187067
#     198172
#     211317
#     223067
#     235630
#     247450
# 
# Disc length: 3490
# 
# Revision: 1
# Processed by: cddbd v1.5.2PL0 Copyright (c) Steve Scherf et al.
# Submitted via: fre:ac v1.0.31
# 
DISCID=100da015
DTITLE=Columbia Blues - Clarence Carter Snatching It Back - Best Of
DYEAR=1992
DGENRE=Blues
TTITLE0=Step By Step
TTITLE1=I Stayed Away Too Long
TTITLE2=Tell Daddy
TTITLE3=Looking For A Fox
TTITLE4=I Can't See Myself
TTITLE5=The Road Of Love
TTITLE6=Slip Away
TTITLE7=Back Door Santa
TTITLE8=That Old Time Feeling
TTITLE9=Too Weak To Fight
TTITLE10=I'd Rather Go Blind
TTITLE11=Making Love (At The Dark End Of The Street)
TTITLE12=Snatching It Back
TTITLE13=Soul Deep
TTITLE14=I Smell A Rat
TTITLE15=Doin' Our Thing
TTITLE16=The Feeling Is Right
TTITLE17=I Can't Leave Your Love Alone
TTITLE18=Slipped, Tripped And Fell In Love
TTITLE19=It's All In Your Mind
TTITLE20=Patches
EXTD=
EXTT0=
EXTT1=
EXTT2=
EXTT3=
EXTT4=
EXTT5=
EXTT6=
EXTT7=
EXTT8=
EXTT9=
EXTT10=
EXTT11=
EXTT12=
EXTT13=
EXTT14=
EXTT15=
EXTT16=
EXTT17=
EXTT18=
EXTT19=
EXTT20=
PLAYORDER=
